HIERARCHY
ROOT Hips
{
	OFFSET 0.00000 0.00000 0.00000
	CHANNELS 6 Xposition Yposition Zposition Zrotation Yrotation Xrotation 
	JOINT LHipJoint
	{
		OFFSET 0 0 0
		CHANNELS 3 Zrotation Yrotation Xrotation
		JOINT LeftHip
		{
			OFFSET 1.54859 -1.61379 0.86856
			CHANNELS 3 Zrotation Yrotation Xrotation
			JOINT LeftKnee
			{
				OFFSET 2.25087 -6.18423 0.00000
				CHANNELS 3 Zrotation Yrotation Xrotation
				JOINT LeftAnkle
				{
					OFFSET 2.40328 -6.60297 0.00000
					CHANNELS 3 Zrotation Yrotation Xrotation
					JOINT LeftToe
					{
						OFFSET 0.17435 -0.47901 2.02453
						CHANNELS 3 Zrotation Yrotation Xrotation
						End Site
						{
							OFFSET 0.00000 -0.00000 1.04844
						}
					}
				}
			}
		}
	}
	JOINT RHipJoint
	{
		OFFSET 0 0 0
		CHANNELS 3 Zrotation Yrotation Xrotation
		JOINT RightHip
		{
			OFFSET -1.54669 -1.61379 0.86856
			CHANNELS 3 Zrotation Yrotation Xrotation
			JOINT RightKnee
			{
				OFFSET -2.28132 -6.26789 0.00000
				CHANNELS 3 Zrotation Yrotation Xrotation
				JOINT RightAnkle
				{
					OFFSET -2.51636 -6.91365 0.00000
					CHANNELS 3 Zrotation Yrotation Xrotation
					JOINT RightToe
					{
						OFFSET -0.15124 -0.41552 2.21090
						CHANNELS 3 Zrotation Yrotation Xrotation
						End Site
						{
							OFFSET -0.00000 -0.00000 1.13399
						}
					}
				}
			}
		}
	}
	JOINT lowerback
	{
		OFFSET 0 0 0
		CHANNELS 3 Zrotation Yrotation Xrotation
		JOINT Chest
		{
			OFFSET -0.04287 2.26161 -0.25690
			CHANNELS 3 Zrotation Yrotation Xrotation
			JOINT Chest2
			{
				OFFSET 0.02248 2.28395 -0.10140
				CHANNELS 3 Zrotation Yrotation Xrotation
				JOINT lowerneck
				{
					OFFSET 0 0 0
					CHANNELS 3 Zrotation Yrotation Xrotation
					JOINT Neck
					{
						OFFSET -0.11644 1.38496 0.11345
						CHANNELS 3 Zrotation Yrotation Xrotation
						JOINT Head
						{
							OFFSET 0.29383 1.36600 0.06642
							CHANNELS 3 Zrotation Yrotation Xrotation
							End Site
							{
								OFFSET 0.11075 1.41395 -0.00294
							}
						}
					}
				}
				JOINT LeftCollar
				{
					OFFSET 0 0 0
					CHANNELS 3 Zrotation Yrotation Xrotation
					JOINT LeftShoulder
					{
						OFFSET 3.51628 0.59542 -0.30346
CHANNELS 3 Zrotation Xrotation Yrotation
						JOINT LeftElbow
						{
OFFSET 0 -4.764050 0.000000
CHANNELS 3 Zrotation Xrotation Yrotation
							JOINT LeftWrist
							{
OFFSET 0 -3.137590 -0.000000
CHANNELS 3 Zrotation Xrotation Yrotation
								JOINT lhand
								{
									OFFSET 0 0 0
CHANNELS 3 Zrotation Xrotation Yrotation
									JOINT LFingers
									{
OFFSET 0 -0.732260 -0.000000
CHANNELS 3 Zrotation Xrotation Yrotation
										End Site
										{
OFFSET 0 -0.590370 -0.000000
										}
									}
								}
								JOINT LThumb
								{
OFFSET 0 0.000000 0.000000
CHANNELS 3 Zrotation Xrotation Yrotation
									End Site
									{
OFFSET 0 -0.599380 0.599380
									}
								}
							}
						}
					}
				}
				JOINT RightCollar
				{
					OFFSET 0 0 0
					CHANNELS 3 Zrotation Yrotation Xrotation
					JOINT RightShoulder
					{
						OFFSET -3.30990 0.84213 -0.36430
CHANNELS 3 Zrotation Xrotation Yrotation
						JOINT RightElbow
						{
OFFSET 0 -5.101610 -0.000000
CHANNELS 3 Zrotation Xrotation Yrotation
							JOINT RightWrist
							{
OFFSET 0 -3.232670 -0.000000
CHANNELS 3 Zrotation Xrotation Yrotation
								JOINT rhand
								{
									OFFSET 0 0 0
CHANNELS 3 Zrotation Xrotation Yrotation
									JOINT RFingers
									{
OFFSET 0 -0.702000 -0.000000
CHANNELS 3 Zrotation Xrotation Yrotation
										End Site
										{
OFFSET 0 -0.565970 -0.000000
										}
									}
								}
								JOINT RThumb
								{
OFFSET 0 0.000000 0.000000
CHANNELS 3 Zrotation Xrotation Yrotation
									End Site
									{
OFFSET 0 -0.574610 0.574610
									}
								}
							}
						}
					}
				}
			}
		}
	}
}
MOTION
Frames: 8
Frame Time: 0.008333333333333333
-14.066051 13.135086 -0.065925 -173.460513 -1.517283 -168.987023 0.000000 0.000000 0.000000 -11.707595 16.107643 -72.919165 19.101117 19.979573 87.370939 -0.127874 -22.066628 -14.530987 0.144590 -2.356531 -6.495411 0.000000 0.000000 0.000000 3.015656 -11.851730 -56.691867 -17.260470 -19.813979 81.964831 -0.748816 -11.103783 -23.899006 -0.067275 -1.581388 4.352426 1.531431 5.716987 43.735784 4.962060 3.593073 11.303115 3.287708 -0.343823 -8.086059 -12.017038 -2.052269 -9.500736 22.320617 -4.032580 -35.137843 11.071715 -5.742566 -8.472351 0.000000 0.000000 0.000000 39.465919 -3.317716 7.541839 84.159127 -59.870350 54.943886 32.851825 -28.970989 -16.635840 0.000000 0.000000 0.000000 -7.125000 0.000000 0.000000 4.996098 49.493645 -0.554325 0.000000 0.000000 0.000000 -46.859596 -16.358100 -36.951951 -76.303346 -59.277316 -48.167228 -67.305916 -93.779152 -42.682444 0.000000 0.000000 0.000000 7.125000 0.000000 0.000000 -13.581019 -36.057158 -19.241039
-13.982754 13.113659 -0.083975 -173.435538 -1.365049 -168.895070 0.000000 0.000000 0.000000 -11.420184 16.128928 -72.627894 18.934551 19.970718 86.883218 0.042779 -22.011683 -15.750361 0.100770 -1.811793 -4.992032 0.000000 0.000000 0.000000 2.327369 -11.596389 -56.450802 -16.891209 -19.756338 80.871893 -0.727048 -11.584948 -24.182018 -0.112826 -2.022565 5.573077 1.530693 5.763361 43.727752 5.020779 3.669218 11.264546 3.319324 -0.307269 -8.136576 -12.065115 -2.006207 -9.502808 22.294252 -3.996139 -35.231329 11.088545 -5.731299 -8.516653 0.000000 0.000000 0.000000 39.005557 -3.261948 7.428118 84.414581 -59.881049 55.164857 33.107875 -28.974366 -16.551720 0.000000 0.000000 0.000000 -7.125000 0.000000 0.000000 5.260095 49.441936 -0.576576 0.000000 0.000000 0.000000 -46.754389 -16.196699 -36.715654 -76.842039 -59.331949 -48.630684 -67.407349 -93.721057 -42.571731 0.000000 0.000000 0.000000 7.125000 0.000000 0.000000 -13.690058 -36.044273 -19.399516
-13.899457 13.092232 -0.102025 -173.410563 -1.212816 -168.803117 0.000000 0.000000 0.000000 -11.132773 16.150214 -72.336624 18.767985 19.961863 86.395497 0.213432 -21.956738 -16.969735 0.056951 -1.267055 -3.488653 0.000000 0.000000 0.000000 1.639082 -11.341049 -56.209737 -16.521949 -19.698697 79.778954 -0.705280 -12.066113 -24.465029 -0.158377 -2.463742 6.793728 1.529955 5.809735 43.719721 5.079499 3.745363 11.225977 3.350940 -0.270714 -8.187094 -12.113192 -1.960146 -9.504879 22.267886 -3.959698 -35.324815 11.105374 -5.720032 -8.560955 0.000000 0.000000 0.000000 38.545194 -3.206180 7.314397 84.670035 -59.891749 55.385829 33.363925 -28.977743 -16.467599 0.000000 0.000000 0.000000 -7.125000 0.000000 0.000000 5.524092 49.390226 -0.598826 0.000000 0.000000 0.000000 -46.649182 -16.035298 -36.479357 -77.380732 -59.386582 -49.094139 -67.508781 -93.662962 -42.461018 0.000000 0.000000 0.000000 7.125000 0.000000 0.000000 -13.799096 -36.031388 -19.557994
-13.816160 13.070804 -0.120075 -173.385588 -1.060582 -168.711164 0.000000 0.000000 0.000000 -10.845363 16.171499 -72.045353 18.601419 19.953008 85.907776 0.384085 -21.901793 -18.189109 0.013131 -0.722317 -1.985274 0.000000 0.000000 0.000000 0.950795 -11.085708 -55.968672 -16.152688 -19.641056 78.686016 -0.683512 -12.547278 -24.748041 -0.203928 -2.904919 8.014379 1.529217 5.856109 43.711689 5.138218 3.821508 11.187408 3.382556 -0.234160 -8.237611 -12.161269 -1.914084 -9.506951 22.241520 -3.923257 -35.418300 11.122204 -5.708765 -8.605258 0.000000 0.000000 0.000000 38.084832 -3.150412 7.200676 84.925489 -59.902448 55.606801 33.619975 -28.981121 -16.383479 0.000000 0.000000 0.000000 -7.125000 0.000000 0.000000 5.788088 49.338517 -0.621076 0.000000 0.000000 0.000000 -46.543975 -15.873898 -36.243060 -77.919425 -59.441215 -49.557595 -67.610213 -93.604867 -42.350305 0.000000 0.000000 0.000000 7.125000 0.000000 0.000000 -13.908134 -36.018503 -19.716471
-13.734415 13.038984 -0.135604 -173.352022 -1.047328 -168.633621 0.000000 0.000000 0.000000 -10.937507 16.148971 -72.226338 18.505133 19.945816 85.625462 0.670411 -20.719212 -19.538512 0.015176 -0.240155 -0.659867 0.000000 0.000000 0.000000 0.305158 -10.994677 -55.775661 -15.779798 -19.558501 77.569300 -0.658197 -13.038365 -25.054221 -0.254218 -3.208225 8.862237 1.703098 5.799031 43.729486 5.206028 3.838930 11.155129 3.359827 -0.226732 -8.271529 -12.262471 -1.890913 -9.548652 22.204873 -3.922622 -35.528719 11.144188 -5.708334 -8.641745 0.000000 0.000000 0.000000 37.633116 -3.165451 7.065366 85.033816 -59.906497 55.700515 33.762874 -28.991232 -16.335691 0.000000 0.000000 0.000000 -7.125000 0.000000 0.000000 5.934860 49.308423 -0.632297 0.000000 0.000000 0.000000 -46.514868 -15.749798 -36.109079 -78.325262 -59.477030 -49.907262 -67.717161 -93.514071 -42.284016 0.000000 0.000000 0.000000 7.125000 0.000000 0.000000 -13.994975 -36.047548 -19.844603
-13.652707 13.006914 -0.151071 -173.318249 -1.037423 -168.556426 0.000000 0.000000 0.000000 -11.038798 16.125386 -72.418702 18.410540 19.938664 85.348098 0.959524 -19.509459 -20.891047 0.018326 0.240499 0.661252 0.000000 0.000000 0.000000 -0.339451 -10.907605 -55.583808 -15.406819 -19.475346 76.452012 -0.632796 -13.529690 -25.360958 -0.304622 -3.508208 9.701111 1.881187 5.739460 43.747905 5.274056 3.854937 11.123002 3.335789 -0.220006 -8.305046 -12.364954 -1.868293 -9.591309 22.167978 -3.922849 -35.639545 11.166297 -5.708163 -8.678044 0.000000 0.000000 0.000000 37.181609 -3.182195 6.929537 85.138597 -59.910385 55.791163 33.903046 -29.001506 -16.288777 0.000000 0.000000 0.000000 -7.125000 0.000000 0.000000 6.078806 49.278851 -0.643252 0.000000 0.000000 0.000000 -46.487594 -15.626598 -35.977563 -78.727898 -59.512392 -50.254187 -67.824241 -93.422486 -42.218797 0.000000 0.000000 0.000000 7.125000 0.000000 0.000000 -14.081280 -36.077603 -19.972004
-13.570999 12.974844 -0.166538 -173.284476 -1.027519 -168.479230 0.000000 0.000000 0.000000 -11.140088 16.101802 -72.611066 18.315948 19.931513 85.070734 1.248638 -18.299706 -22.243583 0.021477 0.721154 1.982370 0.000000 0.000000 0.000000 -0.984061 -10.820533 -55.391955 -15.033841 -19.392191 75.334723 -0.607396 -14.021016 -25.667696 -0.355026 -3.808191 10.539986 2.059275 5.679889 43.766324 5.342084 3.870943 11.090875 3.311750 -0.213280 -8.338564 -12.467436 -1.845674 -9.633965 22.131084 -3.923076 -35.750371 11.188405 -5.707993 -8.714342 0.000000 0.000000 0.000000 36.730101 -3.198940 6.793707 85.243378 -59.914273 55.881810 34.043218 -29.011780 -16.241864 0.000000 0.000000 0.000000 -7.125000 0.000000 0.000000 6.222753 49.249278 -0.654207 0.000000 0.000000 0.000000 -46.460320 -15.503398 -35.846047 -79.130534 -59.547755 -50.601112 -67.931321 -93.330902 -42.153578 0.000000 0.000000 0.000000 7.125000 0.000000 0.000000 -14.167586 -36.107658 -20.099404
-13.487684 12.946579 -0.182263 -173.268571 -1.011199 -168.427487 0.000000 0.000000 0.000000 -11.361982 16.074670 -72.935936 18.201584 19.921623 84.735074 1.512055 -16.608851 -23.474860 0.030437 1.091347 3.000631 0.000000 0.000000 0.000000 -1.616779 -10.707868 -55.149030 -14.652854 -19.294381 74.184114 -0.560245 -14.564583 -25.884464 -0.403013 -4.067657 11.268349 2.213042 5.636926 43.807406 5.402002 3.890125 11.069225 3.290180 -0.207556 -8.367749 -12.513987 -1.817720 -9.677521 22.064237 -3.928432 -35.881483 11.190949 -5.717670 -8.761182 0.000000 0.000000 0.000000 36.329601 -3.242795 6.662492 85.229639 -59.913713 55.869916 34.092905 -29.038572 -16.175913 0.000000 0.000000 0.000000 -7.125000 0.000000 0.000000 6.276163 49.181398 -0.649736 0.000000 0.000000 0.000000 -46.425077 -15.401742 -35.750627 -79.522128 -59.580263 -50.938704 -68.043337 -93.289901 -42.118196 0.000000 0.000000 0.000000 7.125000 0.000000 0.000000 -14.239533 -36.166611 -20.207112
